# Blender v2.76 (sub 0) OBJ File: ''
# www.blender.org
mtllib banana.mtl
o Circle.004
v 0.251013 0.102512 0.141905
v 0.451335 -0.450450 0.239398
v 0.451335 -0.450450 -0.037084
v 0.011574 0.102512 0.249854
v 0.211895 -0.450450 0.377639
v -0.227866 0.102512 0.141905
v -0.384908 -0.373385 0.292031
v -0.227866 0.102513 -0.134576
v -0.418648 -0.450450 0.013389
v 0.011574 0.102513 -0.272817
v 0.251013 0.102513 -0.134576
v 0.251013 -0.450450 -0.411058
v 0.027464 -0.377477 -0.546718
v -0.227866 -0.450450 -0.411058
v 0.178090 0.557938 -0.079554
v 0.189902 0.532339 0.118182
v 0.003069 0.502482 0.213707
v -0.175259 0.499694 0.099189
v 0.017695 0.556754 -0.166830
v -0.151206 0.528499 -0.096682
v 0.091741 0.761832 0.220398
v -0.017401 0.716321 0.241700
v -0.111276 0.724018 0.173510
v -0.096010 0.777228 0.064497
v 0.013132 0.822739 0.033435
v 0.107007 0.815040 0.111385
v -0.028009 0.816624 0.236801
v -0.011553 0.873978 0.119295
v 0.039042 0.869829 0.161307
v -0.078603 0.820772 0.194789
v -0.005991 0.975359 0.210064
v -0.071303 0.913535 0.273212
v -0.067740 0.966499 0.343388
v 0.043454 0.963336 0.247910
v 0.040708 1.027549 0.337799
v -0.017933 0.944332 0.373516
v -0.009099 1.049716 0.307671
v -0.021857 0.901511 0.311058
v -0.004319 1.077855 0.314227
v -0.083265 0.965824 0.362311
v -0.090444 1.009773 0.415685
v 0.062733 1.048013 0.354787
v 0.070645 1.084529 0.402208
v -0.005899 0.971432 0.451745
v -0.009096 1.120733 0.369053
v -0.016213 0.935983 0.402872
v -0.005899 0.971432 0.451745
v -0.090444 1.009773 0.415685
v -0.005899 0.971432 0.451745
v 0.070645 1.084529 0.402208
v -0.009096 1.120733 0.369053
v 0.251013 -0.726931 -0.926631
v -0.733250 -0.719508 0.606700
v -0.493810 -0.719508 0.744941
v 0.740839 -0.725813 0.416566
v 0.740839 -0.725813 0.140085
v 0.011574 -0.726931 -1.064873
v -0.227866 -0.726931 -0.926631
v -0.733250 -0.719508 0.330219
v 0.501399 -0.725814 0.554807
v -0.938858 -0.708276 0.531753
v -1.011880 -0.705443 0.796395
v -0.751946 -0.708277 0.855493
v 0.190051 -0.734326 -1.278005
v 0.004472 -0.733082 -1.455976
v -0.169458 -0.734326 -1.278005
v 0.983699 -0.730868 0.570733
v 0.931689 -0.738044 0.421128
v 0.799652 -0.738045 0.649823
v 0.909404 -0.738262 0.657875
v 0.909404 -0.738262 0.657875
v 0.887772 -0.686173 0.701849
v 0.988132 -0.676184 0.584137
v 0.995657 -0.734219 0.717226
v 1.104644 -0.670722 0.664310
v 1.069952 -0.726824 0.630085
v 0.988132 -0.676184 0.584137
v 0.887772 -0.686173 0.701849
v 1.004284 -0.680711 0.782021
v 1.004284 -0.680711 0.782021
v -0.227866 -0.450450 -0.411058
v -0.227866 -0.726931 -0.926631
v 0.038520 -0.748116 -0.717640
v -0.418648 -0.450450 0.013389
v -0.130889 -0.502608 0.117076
v -0.410249 -0.741525 0.398413
v -0.227866 0.102513 -0.134576
v 0.038520 -0.502608 -0.259823
v -0.227866 0.102513 -0.134576
v 0.098872 -0.017495 0.026911
v 0.098872 -0.017495 0.026911
v 0.251013 -0.450450 -0.411058
v 0.011574 0.102512 0.249854
v -0.179207 -0.450450 0.428111
v 0.211895 -0.450450 0.377639
v 0.240284 -0.467868 0.137322
v 0.542871 -0.738749 0.285220
v 0.011574 0.102512 0.249854
v 0.451335 -0.450450 -0.037084
v 0.098872 -0.017495 0.026911
v 0.740839 -0.725813 0.140085
v -0.179207 -0.450450 0.428111
v -0.009096 1.120733 0.369053
v 0.070645 1.084529 0.402208
v -0.090444 1.009773 0.415685
v 0.983699 -0.730868 0.570733
v 1.104644 -0.670722 0.664310
v -0.733250 -0.719508 0.330219
v 0.251013 0.102513 -0.134576
v 0.251013 -0.726931 -0.926631
v -0.493810 -0.719508 0.744941
v 0.501399 -0.725814 0.554807
v 0.251013 0.102513 -0.134576
vt 0.127263 0.636587
vt 0.131095 0.355659
vt 0.257197 0.411689
vt 0.008851 0.656050
vt 0.006258 0.383384
vt 0.735508 0.641936
vt 0.628104 0.659798
vt 0.649167 0.346166
vt 0.493303 0.648816
vt 0.551741 0.379119
vt 0.379039 0.649138
vt 0.267545 0.637787
vt 0.256694 0.392196
vt 0.367985 0.381987
vt 0.513341 0.391919
vt 0.259235 0.830662
vt 0.126674 0.834509
vt 0.032703 0.831393
vt 0.682284 0.828883
vt 0.601103 0.836317
vt 0.374563 0.834045
vt 0.481440 0.825023
vt 0.157658 0.953835
vt 0.604309 0.922663
vt 0.560524 0.922822
vt 0.463178 0.916081
vt 0.390378 0.926978
vt 0.235624 0.953301
vt 0.098289 0.946208
vt 0.169322 0.993536
vt 0.388055 0.983173
vt 0.230110 0.991278
vt 0.573056 0.961525
vt 0.540558 0.985347
vt 0.843048 0.506812
vt 0.874845 0.509060
vt 0.873324 0.532001
vt 0.823352 0.500227
vt 0.814734 0.530305
vt 0.780439 0.526076
vt 0.839088 0.534247
vt 0.897124 0.508736
vt 0.900103 0.530779
vt 0.837730 0.547200
vt 0.873242 0.545168
vt 0.876091 0.565827
vt 0.811382 0.541878
vt 0.800163 0.565516
vt 0.769396 0.567167
vt 0.838099 0.565281
vt 0.901445 0.542861
vt 0.907549 0.566889
vt 0.877278 0.592199
vt 0.838344 0.591489
vt 0.777813 0.535676
vt 0.848173 0.469445
vt 0.878135 0.474728
vt 0.794345 0.460689
vt 0.828789 0.464758
vt 0.894328 0.474465
vt 0.298125 0.202936
vt 0.674536 0.147237
vt 0.776608 0.196655
vt 0.125806 0.152637
vt 0.234276 0.201965
vt 0.393795 0.159116
vt 0.506777 0.207035
vt 0.575369 0.179686
vt 0.018348 0.203202
vt 0.599706 0.080344
vt 0.686271 0.009305
vt 0.757710 0.086840
vt 0.330412 0.074424
vt 0.400178 0.011568
vt 0.509289 0.086097
vt 0.143747 0.010645
vt 0.204111 0.061719
vt 0.059404 0.050574
vt 0.097144 0.015188
vt 0.916896 0.687727
vt 0.909538 0.663957
vt 0.959950 0.683117
vt 0.886088 0.655637
vt 0.902555 0.623114
vt 0.982194 0.639185
vt 0.991352 0.663363
vt 0.931783 0.620025
vt 0.954032 0.600823
vt 0.929764 0.863717
vt 0.994311 0.909293
vt 0.952415 0.927845
vt 0.851703 0.699900
vt 0.804322 0.714060
vt 0.798156 0.638219
vt 0.866891 0.796706
vt 0.896335 0.889914
vt 0.781092 0.835137
vt 0.889027 0.921751
vt 0.729530 0.793638
vt 0.757550 0.688916
vt 0.651731 0.892840
vt 0.689641 0.917744
vt 0.637881 0.970177
vt 0.710668 0.954161
vt 0.658448 1.006160
vt 0.771358 0.349784
vt 0.321243 0.993529
vt 0.490300 0.986580
vt 0.787638 0.488204
vt 0.954216 0.701911
vt 0.974884 0.695886
vt 0.991352 0.615007
vt 0.847509 0.611796
vt 0.800890 0.901928
vt 0.952125 0.967714
vt 0.750361 0.598376
vt 0.596624 0.945981
vn 0.809500 0.279700 0.516300
vn 0.671900 0.635600 0.380200
vn 0.862000 0.506900 0.000000
vn -0.011600 0.254800 0.966900
vn 0.419300 0.504000 0.755100
vn -0.806300 0.305500 0.506500
vn -0.646700 0.655000 0.390800
vn -0.827100 0.290700 -0.481000
vn -0.864800 0.500600 -0.038000
vn 0.002900 0.351900 -0.936000
vn 0.825800 0.303800 -0.475200
vn 0.534800 0.588100 -0.606700
vn 0.036600 0.728600 -0.684000
vn -0.493600 0.599000 -0.630600
vn 0.783300 0.346700 -0.516000
vn 0.880300 0.138200 0.453900
vn -0.063600 -0.032500 0.997400
vn -0.903900 0.143400 0.403100
vn 0.025200 0.407400 -0.912900
vn -0.758700 0.335300 -0.558600
vn 0.618700 0.245000 0.746400
vn -0.210000 -0.066100 0.975500
vn -0.870300 0.117900 0.478200
vn -0.764300 0.536300 -0.358000
vn 0.045900 0.746000 -0.664300
vn 0.771300 0.626100 -0.114800
vn -0.073900 -0.192500 0.978500
vn -0.205200 0.821700 -0.531600
vn 0.797900 0.602500 -0.020200
vn -0.934000 0.232100 0.271500
vn -0.147200 0.726400 -0.671400
vn -0.992600 -0.036100 0.116300
vn -0.917300 -0.259400 -0.302000
vn 0.977700 0.154500 -0.142100
vn 0.881300 -0.158700 -0.445100
vn 0.306700 -0.951100 0.037100
vn -0.213300 0.513600 -0.831100
vn 0.163500 -0.749800 0.641200
vn -0.081900 0.553100 -0.829100
vn -0.867400 -0.443600 -0.225600
vn -0.813600 0.399100 -0.422800
vn 0.919800 -0.036600 -0.390600
vn 0.849800 -0.476500 0.225200
vn 0.841800 -0.501600 0.199700
vn 0.559100 0.652600 -0.511400
vn 0.167500 -0.959900 0.224800
vn -0.528400 -0.630300 0.568700
vn -0.560600 -0.652500 0.509900
vn -0.149900 0.476600 0.866300
vn -0.143900 0.477100 0.867000
vn -0.147400 0.476800 0.866600
vn 0.264300 0.886400 -0.380200
vn -0.156600 0.982400 0.102100
vn -0.166700 0.915400 0.366500
vn 0.223300 0.966600 0.125600
vn 0.568700 0.822500 0.000000
vn -0.001100 0.977100 -0.212600
vn -0.252700 0.893300 -0.371600
vn -0.541800 0.840200 -0.022200
vn 0.258400 0.856100 0.447600
vn 0.053700 0.998600 0.002300
vn 0.035700 0.999100 -0.021600
vn 0.022600 0.998800 -0.043400
vn 0.019200 0.999600 -0.018600
vn -0.000400 0.999900 -0.015700
vn -0.019600 0.999600 -0.018000
vn 0.006400 0.999700 0.022700
vn 0.065000 0.996800 -0.047200
vn 0.008000 0.998700 0.050400
vn -0.013500 0.998000 0.060900
vn -0.952900 -0.215500 -0.213400
vn -0.780700 -0.559400 0.278600
vn -0.088000 0.243900 -0.965800
vn 0.111400 -0.773500 0.623900
vn 0.843500 -0.536600 0.024600
vn 0.856400 -0.256200 -0.448200
vn -0.066200 0.997400 0.028200
vn 0.143900 -0.772400 0.618700
vn -0.468600 -0.646000 0.602600
vn -0.403400 -0.806400 0.432400
vn 0.054400 -0.880000 0.471900
vn 0.167000 -0.613400 -0.771900
vn 0.667400 -0.624700 -0.405400
vn 0.520900 -0.832300 -0.189500
vn -0.516500 -0.385600 0.764600
vn 0.021100 -0.693400 0.720200
vn 0.304000 -0.323900 -0.895900
vn 0.854200 -0.452300 -0.256700
vn 0.196800 -0.459200 0.866300
vn 0.568300 -0.635500 0.522700
vn 0.873800 -0.291200 0.389400
vn 0.843500 -0.492800 0.213700
vn -0.803600 -0.592100 -0.060200
vn -0.718600 -0.578900 -0.385300
vn -0.536700 -0.777200 -0.328600
vn -0.927500 -0.342300 -0.150200
vn -0.480400 -0.580800 -0.657200
vn -0.783000 -0.359600 -0.507500
vn -0.363200 -0.743300 -0.561700
vn -0.243800 0.638500 0.730000
vn -0.810600 0.424900 -0.403000
vn 0.524200 0.630200 -0.572700
vn -0.153300 0.476300 0.865800
vn -0.184000 0.248100 -0.951100
vn 0.073000 -0.794800 -0.602500
vn 0.793100 -0.272400 0.544800
vn 0.483700 -0.771300 0.413600
vn 0.752800 -0.620100 0.220900
vn -0.665900 -0.743100 -0.066800
vn -0.549400 -0.334100 -0.765900
usemtl None.001
s 1
f 1/1/1 2/2/2 3/3/3
f 1/1/1 4/4/4 5/5/5
f 4/6/4 6/7/6 7/8/7
f 6/7/6 8/9/8 9/10/9
f 10/11/10 11/12/11 12/13/12
f 10/11/10 13/14/13 14/15/14
f 11/12/11 15/16/15 16/17/16
f 1/1/1 16/17/16 17/18/17
f 4/6/4 17/19/17 18/20/18
f 8/9/8 6/7/6 18/20/18
f 11/12/11 10/11/10 19/21/19
f 10/11/10 8/9/8 20/22/20
f 17/18/17 16/17/16 21/23/21
f 17/19/17 22/24/22 23/25/23
f 18/20/18 23/25/23 24/26/24
f 15/16/15 19/21/19 25/27/25
f 19/21/19 20/22/20 25/27/25
f 16/17/16 15/16/15 26/28/26
f 22/29/22 21/23/21 27/30/27
f 26/28/26 25/27/25 28/31/28
f 21/23/21 26/28/26 29/32/29
f 22/24/22 27/33/27 30/34/30
f 24/26/24 23/25/23 30/34/30
f 25/27/25 24/26/24 28/31/28
f 31/35/31 32/36/32 33/37/33
f 34/38/34 35/39/35 36/40/36
f 34/38/34 31/35/31 37/41/37
f 38/42/38 36/43/36 33/37/33
f 39/44/39 40/45/40 41/46/41
f 42/47/42 43/48/43 44/49/44
f 42/47/42 39/44/39 45/50/45
f 46/51/46 47/52/47 48/46/48
f 49/53/49 50/54/50 51/50/51
f 37/41/37 33/37/33 40/45/40
f 35/39/35 42/47/42 46/55/46
f 35/39/35 37/41/37 39/44/39
f 36/43/36 46/51/46 40/45/40
f 28/56/28 30/57/30 32/36/32
f 27/58/27 29/59/29 34/38/34
f 29/59/29 28/56/28 31/35/31
f 27/60/27 38/42/38 32/36/32
f 13/14/13 12/13/12 52/61/52
f 7/8/7 53/62/53 54/63/54
f 2/2/2 55/64/55 56/65/56
f 13/14/13 57/66/57 58/67/58
f 7/8/7 9/10/9 59/68/59
f 2/2/2 5/5/5 60/69/60
f 53/62/53 59/68/59 61/70/61
f 53/62/53 62/71/62 63/72/63
f 57/66/57 52/61/52 64/73/64
f 57/66/57 65/74/65 66/75/66
f 55/64/55 67/76/67 68/77/68
f 55/64/55 60/69/60 69/78/69
f 67/76/67 55/64/55 70/79/70
f 71/80/71 72/81/72 73/82/73
f 72/81/72 71/83/71 74/84/74
f 73/82/73 75/85/75 76/86/76
f 77/82/77 78/81/77 79/87/77
f 75/85/75 80/87/78 74/88/74
f 81/89/79 82/90/80 83/91/81
f 84/92/82 85/93/83 86/94/84
f 87/95/85 81/89/79 88/96/86
f 89/95/87 90/97/88 85/93/83
f 91/97/89 88/96/86 92/98/90
f 92/98/90 88/96/86 83/91/81
f 85/93/83 90/97/88 93/99/91
f 86/94/84 85/93/83 94/100/92
f 95/101/93 96/102/94 97/103/95
f 95/101/93 98/99/96 96/102/94
f 99/104/97 96/102/94 100/97/98
f 100/97/98 96/102/94 98/99/96
f 99/104/97 101/105/99 97/103/95
f 20/22/20 24/26/24 25/27/25
f 11/12/11 1/1/1 3/3/3
f 2/2/2 1/1/1 5/5/5
f 102/106/100 4/6/4 7/8/7
f 7/8/7 6/7/6 9/10/9
f 13/14/13 10/11/10 12/13/12
f 8/9/8 10/11/10 14/15/14
f 1/1/1 11/12/11 16/17/16
f 4/4/4 1/1/1 17/18/17
f 6/7/6 4/6/4 18/20/18
f 20/22/20 8/9/8 18/20/18
f 15/16/15 11/12/11 19/21/19
f 19/21/19 10/11/10 20/22/20
f 22/29/22 17/18/17 21/23/21
f 18/20/18 17/19/17 23/25/23
f 20/22/20 18/20/18 24/26/24
f 26/28/26 15/16/15 25/27/25
f 21/23/21 16/17/16 26/28/26
f 29/107/29 26/28/26 28/31/28
f 27/30/27 21/23/21 29/32/29
f 23/25/23 22/24/22 30/34/30
f 28/108/28 24/26/24 30/34/30
f 37/41/37 31/35/31 33/37/33
f 38/109/38 34/38/34 36/40/36
f 35/39/35 34/38/34 37/41/37
f 32/36/32 38/42/38 33/37/33
f 103/50/101 39/44/39 41/46/41
f 46/55/46 42/47/42 44/49/44
f 104/48/102 42/47/42 45/50/45
f 40/45/40 46/51/46 48/46/48
f 105/46/103 49/53/49 51/50/51
f 39/44/39 37/41/37 40/45/40
f 36/40/36 35/39/35 46/55/46
f 42/47/42 35/39/35 39/44/39
f 33/37/33 36/43/36 40/45/40
f 31/35/31 28/56/28 32/36/32
f 38/109/38 27/58/27 34/38/34
f 34/38/34 29/59/29 31/35/31
f 30/57/30 27/60/27 32/36/32
f 57/66/57 13/14/13 52/61/52
f 102/106/100 7/8/7 54/63/54
f 3/3/3 2/2/2 56/65/56
f 14/15/14 13/14/13 58/67/58
f 53/62/53 7/8/7 59/68/59
f 55/64/55 2/2/2 60/69/60
f 62/71/62 53/62/53 61/70/61
f 54/63/54 53/62/53 63/72/63
f 65/74/65 57/66/57 64/73/64
f 58/67/58 57/66/57 66/75/66
f 56/65/56 55/64/55 68/77/68
f 70/79/70 55/64/55 69/78/69
f 106/110/104 71/80/71 73/82/73
f 80/87/78 72/81/72 74/84/74
f 106/111/104 73/82/73 76/86/76
f 107/85/77 77/82/77 79/87/77
f 76/112/76 75/85/75 74/88/74
f 88/96/86 81/89/79 83/91/81
f 108/113/105 84/92/82 86/94/84
f 91/97/89 87/95/85 88/96/86
f 84/92/82 89/95/87 85/93/83
f 109/114/106 91/97/89 92/98/90
f 110/115/107 92/98/90 83/91/81
f 94/100/92 85/93/83 93/99/91
f 111/116/108 86/94/84 94/100/92
f 112/117/109 95/101/93 97/103/95
f 113/114/110 99/104/97 100/97/98
f 96/102/94 99/104/97 97/103/95
