# Blender v2.76 (sub 0) OBJ File: ''
# www.blender.org
mtllib cheatPiramid.mtl
o Box02
v 0.000000 1.000000 0.000000
v -1.000000 -1.000000 1.000000
v 0.000000 1.000000 0.000000
v 1.000000 -1.000100 1.000000
v 1.000000 -1.000000 -1.000000
v 1.000000 -1.000000 -1.000000
v -1.000000 -1.000000 -1.000000
v -1.000000 -1.000000 -1.000000
vt 0.000000 1.000000
vt 0.000000 0.000000
vt 1.000000 1.000000
vt 1.000000 0.000000
vn 0.000000 0.000000 1.000000
vn 0.000000 0.447100 0.894500
vn 0.000000 0.159800 0.987100
vn 0.000000 0.447200 0.894400
vn 0.894400 0.447200 0.000000
vn 0.992500 0.122400 0.000000
vn 1.000000 0.000000 0.000000
vn 0.000000 1.000000 0.000000
vn 0.894400 -0.447200 0.000000
vn -0.643700 0.643700 0.413900
vn -0.894400 0.447200 0.000000
vn 0.000000 0.447200 -0.894400
vn 0.000000 0.417600 0.908700
vn -0.000100 -1.000000 -0.000000
vn -0.000000 -1.000000 -0.000000
vn 0.000000 -1.000000 -0.000100
usemtl Material01
s 1
f 1/1/1 2/2/2 3/3/3
f 2/2/2 4/4/4 3/3/3
f 3/1/5 4/2/5 5/3/6
f 4/2/5 6/4/7 5/3/6
f 5/1/8 6/2/8 7/3/8
f 6/2/8 8/4/8 7/3/8
f 7/1/9 8/2/10 1/3/11
f 8/2/10 2/4/11 1/3/11
f 7/1/12 1/2/13 5/3/12
f 1/2/13 3/4/1 5/3/12
f 2/1/14 8/2/15 4/3/15
f 8/2/15 6/4/16 4/3/15
